HIERARCHY
ROOT Hips
{
  OFFSET 5.72205e-005 65.662 3.42586
  CHANNELS 6 Xposition Yposition Zposition Zrotation Xrotation Yrotation
  JOINT Chest
  {
    OFFSET 0 8.7983 -4.7612
    CHANNELS 3 Zrotation Xrotation Yrotation
    JOINT Chest2
    {
      OFFSET 0 8.0291 0.4195
      CHANNELS 3 Zrotation Xrotation Yrotation
      JOINT Chest3
      {
        OFFSET 0 9.9351 -2.2114
        CHANNELS 3 Zrotation Xrotation Yrotation
        JOINT Neck
        {
          OFFSET 0 22.3885 -0.4656
          CHANNELS 3 Zrotation Xrotation Yrotation
          JOINT Head
          {
            OFFSET -0.0001 12.643 3.4389
            CHANNELS 3 Zrotation Xrotation Yrotation
            End Site
            {
              OFFSET 0.0001 17.6655 0.5274
            }
          }
        }
        JOINT LeftCollar
        {
          OFFSET 2.2603 21.606 7.4023
          CHANNELS 3 Zrotation Xrotation Yrotation
          JOINT LeftShoulder
          {
            OFFSET 13.5163 -1.1332 -5.0146
            CHANNELS 3 Zrotation Xrotation Yrotation
            JOINT LeftElbow
            {
              OFFSET -0.0995 -28.05 -0.2431
              CHANNELS 3 Zrotation Xrotation Yrotation
              JOINT LeftWrist
              {
                OFFSET 0.0679 -23.3996 -0.1402
                CHANNELS 3 Zrotation Xrotation Yrotation
                JOINT LeftFinger1
                {
                  OFFSET 0.7932 -9.069 2.5189
                  CHANNELS 3 Zrotation Xrotation Yrotation
                  JOINT LeftFinger11
                  {
                    OFFSET -0.8272 -3.3923 0.5977
                    CHANNELS 3 Zrotation Xrotation Yrotation
                    JOINT LeftFinger12
                    {
                      OFFSET -0.5649 -2.3158 0.4082
                      CHANNELS 3 Zrotation Xrotation Yrotation
                      End Site
                      {
                        OFFSET -0.4919 -1.6479 0.2673
                      }
                    }
                  }
                }
                JOINT LeftFinger2
                {
                  OFFSET 0.9159 -9.2044 0.2193
                  CHANNELS 3 Zrotation Xrotation Yrotation
                  JOINT LeftFinger21
                  {
                    OFFSET 0.0117 -4.1944 -0.0248
                    CHANNELS 3 Zrotation Xrotation Yrotation
                    JOINT LeftFinger22
                    {
                      OFFSET 0.0071 -2.3249 -0.0142
                      CHANNELS 3 Zrotation Xrotation Yrotation
                      End Site
                      {
                        OFFSET -0.1475 -2.0882 0.0028
                      }
                    }
                  }
                }
                JOINT LeftFinger3
                {
                  OFFSET 0.6113 -8.7231 -2.0637
                  CHANNELS 3 Zrotation Xrotation Yrotation
                  JOINT LeftFinger31
                  {
                    OFFSET -0.1927 -3.8059 -0.2383
                    CHANNELS 3 Zrotation Xrotation Yrotation
                    JOINT LeftFinger32
                    {
                      OFFSET -0.1091 -2.1688 -0.1362
                      CHANNELS 3 Zrotation Xrotation Yrotation
                      End Site
                      {
                        OFFSET -0.2358 -1.9176 -0.0906
                      }
                    }
                  }
                }
                JOINT LeftFinger4
                {
                  OFFSET -0.6151 -8.0947 -3.5641
                  CHANNELS 3 Zrotation Xrotation Yrotation
                  JOINT LeftFinger41
                  {
                    OFFSET -0.4882 -2.341 -0.6462
                    CHANNELS 3 Zrotation Xrotation Yrotation
                    JOINT LeftFinger42
                    {
                      OFFSET -0.3575 -1.7167 -0.4742
                      CHANNELS 3 Zrotation Xrotation Yrotation
                      End Site
                      {
                        OFFSET -0.4187 -1.5237 -0.3496
                      }
                    }
                  }
                }
                JOINT LeftFinger0
                {
                  OFFSET -1.42 -1.8761 1.4223
                  CHANNELS 3 Zrotation Xrotation Yrotation
                  JOINT LeftFinger01
                  {
                    OFFSET -1.1471 -3.4929 2.6334
                    CHANNELS 3 Zrotation Xrotation Yrotation
                    JOINT LeftFinger02
                    {
                      OFFSET -0.823 -2.3 1.6571
                      CHANNELS 3 Zrotation Xrotation Yrotation
                      End Site
                      {
                        OFFSET -0.5822 -1.6914 1.1582
                      }
                    }
                  }
                }
              }
            }
          }
        }
        JOINT RightCollar
        {
          OFFSET -2.2603 21.606 7.4023
          CHANNELS 3 Zrotation Xrotation Yrotation
          JOINT RightShoulder
          {
            OFFSET -13.5187 -1.1334 -5.0155
            CHANNELS 3 Zrotation Xrotation Yrotation
            JOINT RightElbow
            {
              OFFSET 0.0994 -28.0499 -0.2431
              CHANNELS 3 Zrotation Xrotation Yrotation
              JOINT RightWrist
              {
                OFFSET -0.0679 -23.3996 -0.1402
                CHANNELS 3 Zrotation Xrotation Yrotation
                JOINT RightFinger1
                {
                  OFFSET -0.7932 -9.0691 2.5189
                  CHANNELS 3 Zrotation Xrotation Yrotation
                  JOINT RightFinger11
                  {
                    OFFSET 0.8272 -3.3923 0.5977
                    CHANNELS 3 Zrotation Xrotation Yrotation
                    JOINT RightFinger12
                    {
                      OFFSET 0.565 -2.3158 0.4082
                      CHANNELS 3 Zrotation Xrotation Yrotation
                      End Site
                      {
                        OFFSET 0.4919 -1.6479 0.2673
                      }
                    }
                  }
                }
                JOINT RightFinger2
                {
                  OFFSET -0.916 -9.2044 0.2193
                  CHANNELS 3 Zrotation Xrotation Yrotation
                  JOINT RightFinger21
                  {
                    OFFSET -0.0117 -4.1944 -0.0248
                    CHANNELS 3 Zrotation Xrotation Yrotation
                    JOINT RightFinger22
                    {
                      OFFSET -0.0071 -2.3249 -0.0142
                      CHANNELS 3 Zrotation Xrotation Yrotation
                      End Site
                      {
                        OFFSET 0.1475 -2.0882 0.0028
                      }
                    }
                  }
                }
                JOINT RightFinger3
                {
                  OFFSET -0.6113 -8.7231 -2.0637
                  CHANNELS 3 Zrotation Xrotation Yrotation
                  JOINT RightFinger31
                  {
                    OFFSET 0.1927 -3.8059 -0.2383
                    CHANNELS 3 Zrotation Xrotation Yrotation
                    JOINT RightFinger32
                    {
                      OFFSET 0.1091 -2.1688 -0.1362
                      CHANNELS 3 Zrotation Xrotation Yrotation
                      End Site
                      {
                        OFFSET 0.2358 -1.9176 -0.0906
                      }
                    }
                  }
                }
                JOINT RightFinger4
                {
                  OFFSET 0.6151 -8.0947 -3.564
                  CHANNELS 3 Zrotation Xrotation Yrotation
                  JOINT RightFinger41
                  {
                    OFFSET 0.4882 -2.341 -0.6462
                    CHANNELS 3 Zrotation Xrotation Yrotation
                    JOINT RightFinger42
                    {
                      OFFSET 0.3574 -1.7166 -0.4742
                      CHANNELS 3 Zrotation Xrotation Yrotation
                      End Site
                      {
                        OFFSET 0.4187 -1.5237 -0.3496
                      }
                    }
                  }
                }
                JOINT RightFinger0
                {
                  OFFSET 1.4199 -1.8761 1.4221
                  CHANNELS 3 Zrotation Xrotation Yrotation
                  JOINT RightFinger01
                  {
                    OFFSET 1.1472 -3.4929 2.6336
                    CHANNELS 3 Zrotation Xrotation Yrotation
                    JOINT RightFinger02
                    {
                      OFFSET 0.8229 -2.3 1.6571
                      CHANNELS 3 Zrotation Xrotation Yrotation
                      End Site
                      {
                        OFFSET 0.5822 -1.6914 1.1582
                      }
                    }
                  }
                }
              }
            }
          }
        }
      }
    }
  }
  JOINT RightHip
  {
    OFFSET -9.412 3.9771 -0.7758
    CHANNELS 3 Zrotation Xrotation Yrotation
    JOINT RightKnee
    {
      OFFSET -0.7531 -40.938 0
      CHANNELS 3 Zrotation Xrotation Yrotation
      JOINT RightAnkle
      {
        OFFSET 0 -40.1986 0
        CHANNELS 3 Zrotation Xrotation Yrotation
        JOINT RightToe
        {
          OFFSET 0 -4.4182 9.239
          CHANNELS 3 Zrotation Xrotation Yrotation
          End Site
          {
            OFFSET 0 0 6.1981
          }
        }
      }
    }
  }
  JOINT LeftHip
  {
    OFFSET 9.4119 3.9773 -0.7758
    CHANNELS 3 Zrotation Xrotation Yrotation
    JOINT LeftKnee
    {
      OFFSET 0.7532 -40.9383 0
      CHANNELS 3 Zrotation Xrotation Yrotation
      JOINT LeftAnkle
      {
        OFFSET 0 -40.1986 0
        CHANNELS 3 Zrotation Xrotation Yrotation
        JOINT LeftToe
        {
          OFFSET 0 -4.4182 9.239
          CHANNELS 3 Zrotation Xrotation Yrotation
          End Site
          {
            OFFSET 0 0 6.1981
          }
        }
      }
    }
  }
}
MOTION
Frames:	6
Frame Time:	0.0333333
7.92823 1.26335 -47.4895 0 0 -1.77235e-009 0.232387 1.09912 -0.102027 0.466863 2.19782 -0.208572 0.46686 2.19781 -0.20857 15.8161 -4.58559 13.3947 0.028345 9.2876 4.63957 -21.241 -9.4184 -22.6713 54.9056 -37.6631 12.9435 -33.8828 -33.9172 -15.6703 -27.8512 -3.09409 -40.1333 6.43091e-006 -9.7602e-006 -2.21225e-006 -3.18055e-015 -1.59028e-014 -6.36111e-015 -7.36621e-006 -2.03357e-006 -1.7856e-006 6.43091e-006 -9.7602e-006 -2.21225e-006 -0.0128435 0.00233553 7.94281e-005 -8.06845e-007 -1.85497e-006 1.91343e-006 6.43091e-006 -9.7602e-006 -2.21225e-006 -0.0160426 0.00299614 0.000853683 -8.07019e-007 -1.85492e-006 1.91346e-006 6.43091e-006 -9.7602e-006 -2.21225e-006 -0.0126011 0.00312806 0.00282843 -9.91527e-006 1.82815e-006 -1.95673e-006 6.43091e-006 -9.7602e-006 -2.21225e-006 -3.18055e-015 -1.59028e-014 -6.36111e-015 -7.36621e-006 -2.03357e-006 -1.7856e-006 18.376 -10.0201 3.51271 -43.1863 -44.6775 -2.29832 40.2113 -27.0473 18.6095 22.4429 1.41629 -64.1951 -1.31119e-005 4.86526e-006 8.00803e-006 7.40352e-007 3.65905e-006 4.33046e-006 -1.59028e-015 -3.18055e-015 -1.59028e-015 -1.31119e-005 4.86526e-006 8.00803e-006 0.0129715 0.0023079 -8.66727e-005 -8.53802e-006 1.05722e-005 3.66763e-006 -1.31119e-005 4.86526e-006 8.00803e-006 0.0163457 0.00304452 -0.000876495 -5.56597e-015 3.18055e-015 6.36111e-015 -1.31119e-005 4.86526e-006 8.00803e-006 0.0145836 0.00367336 -0.00326448 -4.77083e-015 -6.36111e-015 4.77083e-015 -1.31119e-005 4.86526e-006 8.00803e-006 7.40352e-007 3.65905e-006 4.33046e-006 -1.59028e-015 -3.18055e-015 -1.59028e-015 -8.30276 -52.2517 -19.9169 -177.316 13.2856 168.971 -5.72609 37.8035 -11.0613 8.82781e-032 3.18055e-015 -1.59028e-015 8.34842 -51.9979 19.9238 177.343 13.2599 -168.978 5.96663 36.9519 10.9314 -3.73077e-007 6.68891e-008 2.0545e-007 
7.92823 1.26335 -47.4895 4.25358e-007 1.68802e-006 -2.46845e-009 0.231894 1.04532 -0.101204 0.465748 2.0902 -0.206691 0.465748 2.0902 -0.206691 15.6383 -4.55558 13.2422 0.032049 9.1861 4.58833 -21.1733 -9.005 -22.391 54.6879 -37.8072 12.7878 -34.1909 -34.0685 -15.8559 -26.8881 -2.88369 -40.1362 -6.36111e-015 -6.36111e-015 -0 -3.18055e-015 -3.18055e-015 -0 -3.18055e-015 3.18055e-015 -0 -6.36111e-015 -6.36111e-015 -0 -0.0128241 0.00232753 8.37392e-005 -3.18055e-015 -6.36111e-015 -6.36111e-015 -6.36111e-015 -6.36111e-015 -0 -0.0160248 0.00298996 0.000856293 3.18055e-015 0 -9.54166e-015 -6.36111e-015 -6.36111e-015 -0 -0.0125713 0.00312144 0.00282206 3.18055e-015 -3.18055e-015 -0 -6.36111e-015 -6.36111e-015 -0 -3.18055e-015 -3.18055e-015 -0 -3.18055e-015 3.18055e-015 -0 18.6447 -9.5792 3.83745 -43.3816 -44.546 -2.44307 40.0718 -26.9864 18.5409 21.8911 1.32769 -64.083 -9.21453e-007 -2.35358e-006 3.3422e-006 6.48727e-006 5.21153e-006 -2.68155e-006 -4.77083e-015 0 -1.59028e-015 -9.21453e-007 -2.35358e-006 3.3422e-006 0.0129493 0.00232835 -8.67759e-005 2.38542e-015 0 3.18055e-015 -9.21453e-007 -2.35358e-006 3.3422e-006 0.0163184 0.00304454 -0.000872443 2.38542e-015 -3.18055e-015 7.95139e-015 -9.21453e-007 -2.35358e-006 3.3422e-006 0.0145625 0.00369309 -0.00325472 3.97569e-015 -3.18055e-015 1.59028e-015 -9.21453e-007 -2.35358e-006 3.3422e-006 6.48727e-006 5.21153e-006 -2.68155e-006 -4.77083e-015 0 -1.59028e-015 -8.30276 -52.2517 -19.9169 -177.316 13.2856 168.971 -5.7261 37.8035 -11.0613 -1.59028e-015 3.18055e-015 3.18055e-015 8.34835 -51.9979 19.9237 177.343 13.2599 -168.978 5.96665 36.9519 10.9313 -0 -1.88396e-009 -0 
7.92823 1.26335 -47.4895 -0 0 2.03502e-009 0.231494 1.0022 -0.10054 0.464854 2.00399 -0.205177 0.464851 2.00397 -0.205176 15.4607 -4.5251 13.0897 0.0356359 9.08461 4.5371 -21.1204 -8.67397 -22.1671 54.5138 -37.9206 12.663 -34.4398 -34.1899 -16.0065 -26.1165 -2.71504 -40.1417 -3.53113e-031 -3.18055e-015 -6.36111e-015 4.32399e-006 -6.31965e-006 -1.84457e-006 1.95256e-022 3.51743e-006 -3.18055e-015 -3.53113e-031 -3.18055e-015 -6.36111e-015 -0.01282 0.00232664 9.1132e-005 -6.36111e-015 9.54166e-015 -3.18055e-015 -3.53113e-031 -3.18055e-015 -6.36111e-015 -0.016042 0.00299586 0.000858574 -1.93704e-006 -3.79065e-006 -3.86951e-006 -3.53113e-031 -3.18055e-015 -6.36111e-015 -0.0125882 0.00312537 0.00282095 4.61964e-006 -3.60096e-006 -7.82391e-008 -3.53113e-031 -3.18055e-015 -6.36111e-015 4.32399e-006 -6.31965e-006 -1.84457e-006 1.95256e-022 3.51743e-006 -3.18055e-015 18.8579 -9.22509 4.09542 -43.5375 -44.4402 -2.55838 39.9607 -26.9378 18.4863 21.4495 1.25586 -63.9939 -7.15625e-015 3.18055e-015 -0 -7.95139e-016 -6.36111e-015 1.59028e-015 8.82781e-032 -3.18055e-015 1.59028e-015 -7.15625e-015 3.18055e-015 -0 0.0129553 0.00232249 -8.73675e-005 3.97569e-015 -3.18055e-015 6.36111e-015 -7.15625e-015 3.18055e-015 -0 0.0163431 0.00302577 -0.000881357 -3.18055e-015 6.36111e-015 -1.59028e-015 -7.15625e-015 3.18055e-015 -0 0.014587 0.00367792 -0.00326916 4.77083e-015 3.18055e-015 -3.18055e-015 -7.15625e-015 3.18055e-015 -0 -7.95139e-016 -6.36111e-015 1.59028e-015 8.82781e-032 -3.18055e-015 1.59028e-015 -8.30276 -52.2517 -19.9169 -177.316 13.2856 168.971 -5.72609 37.8035 -11.0613 1.59028e-015 -3.18055e-015 -0 8.34842 -51.9979 19.9238 177.343 13.2599 -168.978 5.96663 36.9519 10.9314 -3.73077e-007 6.68891e-008 2.0545e-007 
7.92823 1.26335 -47.4895 -0 0 1.11001e-009 0.231097 0.959047 -0.0998731 0.463964 1.91768 -0.203658 0.463964 1.91768 -0.203658 15.283 -4.49417 12.9373 0.0391367 8.98309 4.4859 -21.0688 -8.34268 -21.9437 54.3381 -38.0353 12.537 -34.688 -34.3097 -16.157 -25.3441 -2.54628 -40.1495 1.27222e-014 -9.54166e-015 -6.36111e-015 3.18055e-015 -3.18055e-015 3.18055e-015 -0 -6.36111e-015 -0 1.27222e-014 -9.54166e-015 -6.36111e-015 -0.0127979 0.0023148 8.26863e-005 3.18055e-015 0 3.18055e-015 1.27222e-014 -9.54166e-015 -6.36111e-015 -0.0160786 0.00300807 0.000867026 -6.36111e-015 0 -3.18055e-015 1.27222e-014 -9.54166e-015 -6.36111e-015 -0.01259 0.00312389 0.00282967 -5.29669e-031 -3.18055e-015 -9.54166e-015 1.27222e-014 -9.54166e-015 -6.36111e-015 3.18055e-015 -3.18055e-015 3.18055e-015 -0 -6.36111e-015 -0 19.0693 -8.86994 4.35192 -43.692 -44.3348 -2.67254 39.8489 -26.8887 18.4315 21.008 1.1833 -63.9052 -3.97147e-006 -1.55408e-007 5.08071e-006 2.87408e-007 1.92099e-006 3.65583e-006 4.41624e-006 5.24499e-006 -5.38076e-006 -3.97147e-006 -1.55408e-007 5.08071e-006 0.0129606 0.00233022 -9.09982e-005 1.3997e-006 3.00039e-006 -2.69199e-006 -3.97147e-006 -1.55408e-007 5.08071e-006 0.0163367 0.00304773 -0.000870574 9.85247e-006 -3.98076e-006 -6.50194e-006 -3.97147e-006 -1.55408e-007 5.08071e-006 0.0145782 0.0036846 -0.00326267 4.77495e-006 2.0037e-006 -7.64791e-007 -3.97147e-006 -1.55408e-007 5.08071e-006 2.87408e-007 1.92099e-006 3.65583e-006 4.41624e-006 5.24499e-006 -5.38076e-006 -8.30276 -52.2517 -19.9169 -177.316 13.2856 168.971 -5.72609 37.8035 -11.0613 1.59028e-015 3.18055e-015 1.59028e-015 8.34842 -51.9979 19.9238 177.343 13.2599 -168.978 5.96663 36.9519 10.9314 -3.73077e-007 6.68892e-008 2.0545e-007 
7.92823 1.26335 -47.4895 -0 0 3.70004e-010 0.230701 0.915847 -0.0992023 0.463073 1.83127 -0.20213 0.463076 1.83129 -0.202131 15.1054 -4.46273 12.785 0.0425532 8.88157 4.43471 -21.0185 -8.01108 -21.7208 54.1624 -38.1488 12.4106 -34.9378 -34.4295 -16.3088 -24.571 -2.37748 -40.1597 6.55382e-006 6.89105e-006 3.87302e-006 -5.29669e-031 3.18055e-015 9.54166e-015 -6.55382e-006 -6.89105e-006 -3.87302e-006 6.55382e-006 6.89105e-006 3.87302e-006 -0.0128193 0.00231843 8.18659e-005 6.36111e-015 -9.54166e-015 1.27222e-014 6.55382e-006 6.89105e-006 3.87302e-006 -0.0160645 0.00300471 0.000850819 8.89255e-006 -4.84703e-006 4.09486e-006 6.55382e-006 6.89105e-006 3.87302e-006 -0.0125669 0.00311691 0.00281653 -2.72103e-006 -2.8704e-006 3.91566e-006 6.55382e-006 6.89105e-006 3.87302e-006 -5.29669e-031 3.18055e-015 9.54166e-015 -6.55382e-006 -6.89105e-006 -3.87302e-006 19.279 -8.51371 4.60692 -43.8461 -44.2291 -2.78615 39.7373 -26.8396 18.3769 20.5664 1.11007 -63.8172 3.44989e-006 4.805e-006 -6.68632e-008 1.30832e-006 1.71238e-006 -7.23351e-007 3.97569e-015 -9.54166e-015 -3.18055e-015 3.44989e-006 4.805e-006 -6.68632e-008 0.0129457 0.00231783 -7.97151e-005 9.54166e-015 0 -0 3.44989e-006 4.805e-006 -6.68632e-008 0.016311 0.00304205 -0.000872736 3.18055e-015 -6.36111e-015 -3.18055e-015 3.44989e-006 4.805e-006 -6.68632e-008 0.0145669 0.00368442 -0.00326079 -3.18055e-015 6.36111e-015 3.18055e-015 3.44989e-006 4.805e-006 -6.68632e-008 1.30832e-006 1.71238e-006 -7.23351e-007 3.97569e-015 -9.54166e-015 -3.18055e-015 -8.30276 -52.2517 -19.9169 -177.316 13.2856 168.971 -5.72609 37.8035 -11.0613 1.59028e-015 6.36111e-015 1.59028e-015 8.34842 -51.9979 19.9238 177.343 13.2599 -168.978 5.96663 36.9519 10.9314 -3.73077e-007 6.68892e-008 2.0545e-007 
7.92823 1.26335 -47.4895 -5.78278e-008 -9.8731e-019 2.44755e-009 0.230307 0.872618 -0.0985292 0.462195 1.74483 -0.200601 0.462195 1.74483 -0.200601 14.9278 -4.43088 12.6327 0.0458609 8.78004 4.38354 -20.9696 -7.67928 -21.4982 53.986 -38.2622 12.2835 -35.1881 -34.5488 -16.4614 -23.7972 -2.20863 -40.172 -6.36111e-015 0 3.18055e-015 0 3.18055e-015 -0 1.95935e-006 -3.94891e-006 -2.00591e-006 -6.36111e-015 0 3.18055e-015 -0.0128021 0.00232443 8.09178e-005 1.59028e-014 -1.27222e-014 -9.54166e-015 -6.36111e-015 0 3.18055e-015 -0.0160607 0.00300181 0.000858251 2.64834e-030 -1.59028e-014 9.54166e-015 -6.36111e-015 0 3.18055e-015 -0.0125498 0.00312033 0.00282501 -4.59116e-006 -2.93253e-006 -5.92056e-006 -6.36111e-015 0 3.18055e-015 0 3.18055e-015 -0 1.95935e-006 -3.94891e-006 -2.00591e-006 19.487 -8.1565 4.8605 -44.0002 -44.1225 -2.89966 39.6265 -26.7907 18.3228 20.1248 1.03611 -63.7297 1.74971e-005 -5.88657e-006 -2.45997e-006 -7.67252e-006 1.01092e-005 1.55451e-006 -6.36111e-015 0 -1.59028e-015 1.74971e-005 -5.88657e-006 -2.45997e-006 0.0129378 0.00232421 -8.23896e-005 9.54166e-015 -6.36111e-015 -0 1.74971e-005 -5.88657e-006 -2.45997e-006 0.0163162 0.00304418 -0.000868955 2.38542e-015 -6.36111e-015 -1.59028e-015 1.74971e-005 -5.88657e-006 -2.45997e-006 0.0145889 0.00368718 -0.00326796 -3.2608e-006 4.24884e-006 4.75685e-006 1.74971e-005 -5.88657e-006 -2.45997e-006 -7.67252e-006 1.01092e-005 1.55451e-006 -6.36111e-015 0 -1.59028e-015 -8.30276 -52.2517 -19.9169 -177.316 13.2856 168.971 -5.72609 37.8035 -11.0613 7.95139e-016 -6.36111e-015 -1.59028e-015 8.34842 -51.9979 19.9238 177.343 13.2599 -168.978 5.96663 36.9519 10.9314 -3.73077e-007 6.68891e-008 2.0545e-007 
